<svg width="500" height="500" viewBox="0 0 500 500" fill="none" xmlns="http://www.w3.org/2000/svg">
<path d="M170.865 6.03418C178.944 4.03077 188.05 4.89159 197.907 9.03711L198.864 9.44824C212.786 15.5733 223.49 25.9391 234.042 37.4258V37.4268C244.093 48.3674 252.854 60.2565 259.521 73.4453L260.159 74.7266C273.405 101.646 285.542 128.487 292.191 157.297V157.298C292.319 157.849 292.365 158.195 292.546 159.103C292.694 159.847 292.912 160.829 293.298 161.848C294.152 164.1 295.773 166.363 298.808 167.747L299.81 168.204L300.91 168.197C305.717 168.17 308.795 165.738 310.831 163.27C311.765 162.138 312.556 160.907 313.149 160C313.807 158.994 314.266 158.313 314.732 157.772C343 124.981 378.329 102.716 419.64 88.9912C433.141 84.5052 446.421 82.0631 460.016 84.1182H460.017C464.702 84.8256 469.085 85.6599 472.985 87.1631C481.589 90.4801 485.987 97.3283 485.211 106.055C484.73 111.462 483.134 117.011 481.24 122.736C473.225 146.962 460.874 169.012 444.672 188.816C426.16 211.444 406.056 232.07 381.396 247.651V247.652C377.541 250.089 374.126 253.091 371.082 255.84C368.779 257.919 367.356 260.879 368.033 264.179C368.645 267.159 370.744 269.225 372.742 270.438H372.744C376.585 272.77 380.761 274.542 384.408 276.152H384.409C411.167 287.964 436.078 303.166 460.482 319.534C468.663 325.021 476.34 331.599 483.477 338.624H483.478C491.399 346.42 495.089 355.454 495 364.167C494.911 372.871 491.046 381.774 482.875 389.325V389.326C467.277 403.743 449.746 411.568 427.759 409.942L426.708 409.857C400.694 407.594 379.007 395.96 356.629 382.438C348.445 377.493 341.428 371.203 334.643 364.27C331.246 360.799 327.95 357.212 324.583 353.556C321.235 349.92 317.82 346.218 314.273 342.627C313.551 341.895 312.935 341.085 311.968 339.878C311.095 338.789 309.943 337.393 308.477 336.182H308.476C306.243 334.339 303.482 333.977 301.238 334.443C299.093 334.889 296.482 336.325 295.362 339.223C293.289 344.581 291.805 350.11 290.48 355.41C285.205 376.516 279.605 397.249 271.808 417.348V417.349C258.46 451.756 232.767 474.001 199.292 489.343V489.344C185.069 495.862 170.313 496.734 155.234 492.022L154.517 491.794C146.96 489.346 141.194 485.647 136.914 480.837C132.628 476.02 129.622 469.853 127.947 462.161C125.914 452.823 126.46 443.428 128.059 433.598C132.47 406.472 143.416 381.575 157.205 357.418C162.215 348.642 167.235 340.018 173.141 331.322L178.836 322.937L168.716 323.521C147.233 324.764 127.945 326.914 108.082 327.339H108.081C87.5762 327.778 67.4502 326.686 47.6123 322.288C33.7226 319.208 22.9277 311.744 14.0781 300.965L13.2275 299.912L12.5674 299.062C5.90063 290.28 3.9254 281.493 5.5293 273.798C7.13837 266.078 12.5249 258.619 22.1895 252.876L23.1377 252.325C31.6709 247.492 40.9479 244.3 50.7314 241.819L52.6953 241.333C73.2161 236.354 94.0252 233.309 115.097 232.432C133.082 231.683 150.679 231.442 168.833 230.797C169.806 230.762 170.813 230.796 172.067 230.834C173.256 230.87 174.658 230.91 176.102 230.833C179.081 230.675 182.489 230.017 185.845 227.727L187.791 226.397L188.005 224.049C188.403 219.672 186.933 216.182 185.12 213.43C183.727 211.314 181.691 209.084 180.376 207.554L179.861 206.943C166.594 190.813 155.525 173.337 146.705 154.516C131.009 121.021 128.991 85.9454 135.859 49.7344C137.762 39.699 141.961 30.4149 148.172 22.1514L148.171 22.1504C154.806 13.324 162.543 8.098 170.865 6.03418Z" fill="#59CD90" stroke="#020122" stroke-width="10"/>
</svg>
